<svg width="23" height="23" viewBox="0 0 23 23" fill="none" xmlns="http://www.w3.org/2000/svg">
<g clip-path="url(#clip0_4013_118)">
<path d="M15.8062 6.08273C15.3601 5.63156 14.6331 5.62587 14.1799 6.07005L5.6795 14.4713L1.98429 10.6459C1.54356 10.1865 0.813925 10.1714 0.354626 10.6122C-0.104723 11.0529 -0.1198 11.7825 0.320927 12.2418C0.322924 12.2439 0.324871 12.2459 0.326868 12.248L4.83239 16.9171C5.04801 17.1371 5.34271 17.2617 5.65074 17.2629H5.66342C5.96561 17.262 6.25537 17.1423 6.47024 16.9298L15.7959 7.70904C16.2464 7.26223 16.251 6.53529 15.8062 6.08273Z" fill="#5CADFF"/>
<path d="M11.7479 16.9171C11.963 17.1365 12.2567 17.261 12.5639 17.2629H12.5766C12.8788 17.2619 13.1686 17.1423 13.3834 16.9298L22.7091 7.709C23.1318 7.23302 23.0886 6.50454 22.6127 6.08183C22.1812 5.69862 21.5329 5.69357 21.0955 6.07L12.5985 14.4713L12.2953 14.1566C11.8547 13.6973 11.125 13.6821 10.6657 14.1229C10.2063 14.5635 10.1912 15.2932 10.6319 15.7525C10.6339 15.7546 10.6359 15.7567 10.6379 15.7587L11.7479 16.9171Z" fill="#5CADFF"/>
</g>
<defs>
<clipPath id="clip0_4013_118">
<rect width="23" height="23" fill="white" transform="translate(0 0.00170898)"/>
</clipPath>
</defs>
</svg>
