<svg width="40" height="40" viewBox="0 0 40 40" fill="none" xmlns="http://www.w3.org/2000/svg">
<path d="M13.8464 3.07715H4.61546C3.33324 3.07715 2.24357 3.52591 1.34596 4.42319C0.448765 5.32064 0 6.41031 0 7.69261V16.9232C0 18.2054 0.448512 19.2949 1.34596 20.1922C2.24349 21.0894 3.33349 21.5383 4.61546 21.5383H10C10.6409 21.5383 11.1859 21.7628 11.6346 22.2114C12.0834 22.6597 12.3077 23.2049 12.3077 23.8462V24.615C12.3077 26.3139 11.7066 27.7637 10.5048 28.9659C9.3029 30.1674 7.85271 30.7684 6.15372 30.7684H4.61546C4.19852 30.7684 3.83807 30.9211 3.53345 31.2254C3.22908 31.5296 3.07677 31.8903 3.07677 32.307V35.3843C3.07677 35.8003 3.22908 36.1617 3.53345 36.4661C3.83833 36.7703 4.19843 36.923 4.61546 36.923H6.1538C7.82063 36.923 9.41118 36.598 10.9257 35.9492C12.4401 35.3003 13.7501 34.4226 14.856 33.3168C15.9615 32.2109 16.839 30.9011 17.488 29.3866C18.1369 27.8722 18.4615 26.2817 18.4615 24.6151V7.69228C18.4615 6.40997 18.0127 5.32039 17.1154 4.42311C16.2182 3.52583 15.1283 3.07715 13.8464 3.07715Z" fill="#E5ECF2"/>
<path d="M38.6535 4.42319C37.7563 3.52591 36.6666 3.07715 35.3843 3.07715H26.1538C24.8715 3.07715 23.7819 3.52591 22.8846 4.42319C21.9874 5.32072 21.5388 6.41031 21.5388 7.69261V16.9232C21.5388 18.2054 21.9874 19.2949 22.8846 20.1922C23.7819 21.0894 24.8716 21.5383 26.1538 21.5383H31.5384C32.1792 21.5383 32.7246 21.7628 33.1733 22.2114C33.6215 22.66 33.8463 23.2049 33.8463 23.8462V24.615C33.8463 26.3139 33.2453 27.7637 32.0432 28.9659C30.8414 30.1674 29.3915 30.7684 27.6924 30.7684H26.1538C25.7372 30.7684 25.3764 30.9211 25.0721 31.2254C24.7676 31.5296 24.6151 31.8903 24.6151 32.307V35.3843C24.6151 35.8003 24.7676 36.1617 25.0721 36.4661C25.3763 36.7703 25.7371 36.923 26.1538 36.923H27.6924C29.3589 36.923 30.9494 36.598 32.4641 35.9492C33.9783 35.3003 35.2881 34.4226 36.394 33.3168C37.4999 32.2109 38.3778 30.9008 39.0264 29.3866C39.6752 27.8725 40 26.2817 40 24.6151V7.69228C39.9997 6.40997 39.5514 5.32039 38.6535 4.42319Z" fill="#E5ECF2"/>
</svg>
