<svg width="12" height="12" viewBox="0 0 12 12" fill="none" xmlns="http://www.w3.org/2000/svg">
<path d="M11.9686 4.83043C11.8896 4.58744 11.6741 4.41541 11.4201 4.39243L7.95607 4.07794L6.58706 0.872809C6.48599 0.637332 6.256 0.485352 6.00002 0.485352C5.74403 0.485352 5.51396 0.637332 5.41352 0.872809L4.04451 4.07794L0.579912 4.39243C0.32594 4.41587 0.110879 4.5879 0.0314104 4.83043C-0.047601 5.07341 0.0253678 5.33993 0.217449 5.50839L2.83599 7.80447L2.06392 11.205C2.00743 11.455 2.10447 11.7136 2.31194 11.8635C2.42345 11.9446 2.55446 11.985 2.68594 11.985C2.79891 11.985 2.91198 11.955 3.01297 11.8946L6.00002 10.1085L8.98652 11.8946C9.20561 12.0255 9.48109 12.0135 9.6881 11.8635C9.89556 11.7136 9.99261 11.455 9.93612 11.205L9.16404 7.80447L11.7826 5.50839C11.9746 5.33993 12.0476 5.07396 11.9686 4.83043Z" fill="#ECEAE6"/>
</svg>
