<svg width="40" height="41" viewBox="0 0 40 41" fill="none" xmlns="http://www.w3.org/2000/svg">
<g clip-path="url(#clip0_58_232)">
<path d="M20 0.229004C8.95546 0.229004 0 9.18271 0 20.2281C0 31.2735 8.95458 40.2272 20 40.2272C31.0463 40.2272 40 31.2735 40 20.2281C40 9.18271 31.0463 0.229004 20 0.229004ZM20 6.20897C23.6546 6.20897 26.616 9.17129 26.616 12.8241C26.616 16.4778 23.6546 19.4392 20 19.4392C16.3472 19.4392 13.3858 16.4778 13.3858 12.8241C13.3858 9.17129 16.3472 6.20897 20 6.20897ZM19.9956 34.9984C16.3507 34.9984 13.0124 33.671 10.4375 31.4738C9.81024 30.9388 9.4483 30.1543 9.4483 29.3312C9.4483 25.6265 12.4466 22.6616 16.1522 22.6616H23.8496C27.556 22.6616 30.5429 25.6265 30.5429 29.3312C30.5429 30.1552 30.1827 30.938 29.5546 31.473C26.9806 33.671 23.6414 34.9984 19.9956 34.9984Z" fill="#D4D6D8"/>
</g>
<defs>
<clipPath id="clip0_58_232">
<rect width="40" height="40" fill="white" transform="translate(0 0.228027)"/>
</clipPath>
</defs>
</svg>
