<svg width="1920" height="1416" viewBox="0 0 1920 1416" fill="none" xmlns="http://www.w3.org/2000/svg">
<g clip-path="url(#clip0_48_1186)">
<g opacity="0.5">
<rect width="1920" height="1416" fill="white"/>
<rect width="1920" height="1416" fill="url(#paint0_radial_48_1186)" fill-opacity="0.25"/>
<rect width="1920" height="1416" fill="url(#paint1_radial_48_1186)" fill-opacity="0.75"/>
<rect width="1920" height="1416" fill="url(#paint2_linear_48_1186)"/>
</g>
<path d="M2036.21 426.568C1950.97 442.667 1800.72 90.3306 1669.43 115.126C1538.15 139.922 1538.47 492.867 1393.84 520.183C1249.21 547.499 1190.96 392.436 1050.42 418.98C909.874 445.524 909.536 749.249 764.786 776.588C620.035 803.927 553.435 498.23 404.116 526.432C254.797 554.633 248.207 649.444 99.128 677.6" stroke="#3CB4FF" stroke-opacity="0.39" stroke-linecap="round" stroke-linejoin="round"/>
<path d="M-16.027 480.007C68.7387 499.768 228.215 154.103 358.771 184.539C489.327 214.974 479.683 567.705 623.51 601.234C767.337 634.763 829.648 482.297 969.41 514.879C1109.17 547.46 1101.49 851.027 1245.44 884.585C1389.38 918.142 1464.02 615.487 1612.51 650.104C1761 684.72 1765.08 779.76 1913.33 814.321" stroke="#3CB4FF" stroke-opacity="0.39" stroke-linecap="round" stroke-linejoin="round"/>
</g>
<defs>
<radialGradient id="paint0_radial_48_1186" cx="0" cy="0" r="1" gradientUnits="userSpaceOnUse" gradientTransform="translate(368.5 420.191) rotate(46.9347) scale(779.842 1038.48)">
<stop stop-color="#3CB4FF"/>
<stop offset="1" stop-color="#3CB4FF" stop-opacity="0"/>
</radialGradient>
<radialGradient id="paint1_radial_48_1186" cx="0" cy="0" r="1" gradientUnits="userSpaceOnUse" gradientTransform="translate(1550.5 897.258) rotate(-151.218) scale(1184.31 1558.47)">
<stop stop-color="#BAF553"/>
<stop offset="1" stop-color="#D9FF96" stop-opacity="0"/>
</radialGradient>
<linearGradient id="paint2_linear_48_1186" x1="960" y1="0" x2="960" y2="1444.57" gradientUnits="userSpaceOnUse">
<stop offset="0.676653" stop-color="white" stop-opacity="0"/>
<stop offset="1" stop-color="white"/>
</linearGradient>
<clipPath id="clip0_48_1186">
<rect width="1920" height="1416" fill="white"/>
</clipPath>
</defs>
</svg>
